# xmcd
#
# Track frame offsets: 
#        150
#        13442
#        25509
#        36706
#        46607
#        56696
#        71075
#        77925
#        84981
#        96383
#        107515
#        114471
#        123266
#        135941
#        144480
#        157254
#        167993
#        175785
#        185803
#        193668
#        200448
#
# Disc length: 2798 seconds
#
# Revision: 0
# Processed by: cddbd v1.5.2PL0 Copyright (c) Steve Scherf et al.
# Submitted via: ExactAudioCopy v1.0b6
#
DISCID=2b0aec15
DTITLE=Todd Phillips - All Star Bluegrass Jam Along for Bass
DYEAR=2006
DGENRE=Instructional
TTITLE0=Bill Cheatham
TTITLE1=Blackberry Blossom
TTITLE2=Black Mountain Rag
TTITLE3=Farewell Blues
TTITLE4=I'll Fly Away
TTITLE5=Footprints in the Snow
TTITLE6=All the Good Times Are Past and Gone
TTITLE7=In the Pines
TTITLE8=I Am a Pilgrim
TTITLE9=John Hardy
TTITLE10=Little Maggie
TTITLE11=New River Train
TTITLE12=Old Joe Clark
TTITLE13=Pretty Polly
TTITLE14=Don't That Road Look Rough and Rocky
TTITLE15=Sally Ann
TTITLE16=Sittin' on Top of the World
TTITLE17=Soldier's Joy
TTITLE18=Roll in My Sweet Baby's Arms
TTITLE19=Way Downtown
TTITLE20=Down in the Willow Garden
EXTD=
EXTT0=
EXTT1=
EXTT2=
EXTT3=
EXTT4=
EXTT5=
EXTT6=
EXTT7=
EXTT8=
EXTT9=
EXTT10=
EXTT11=
EXTT12=
EXTT13=
EXTT14=
EXTT15=
EXTT16=
EXTT17=
EXTT18=
EXTT19=
EXTT20=
PLAYORDER=
